<svg width="51" height="47" fill="none" xmlns="http://www.w3.org/2000/svg"><path d="M13.674 18.804c-.441-.301-.884-.451-1.326-.451h-1.985V29.19h1.986c.442 0 .885-.15 1.326-.451.442-.301.663-.752.663-1.355v-7.226c-.001-.601-.223-1.053-.664-1.354zM46.002.516H4.998C2.243.516.007 2.548 0 5.06v37.386c.007 2.512 2.243 4.544 4.998 4.544h41.004c2.756 0 4.991-2.032 4.998-4.544V5.06C50.993 2.548 48.757.516 46.002.516zM17.554 27.404c0 1.95-1.322 4.907-5.505 4.901H6.767V15.141h5.393c4.035 0 5.392 2.952 5.393 4.905l.001 7.358zm11.461-9.198H22.95v3.986h3.708v3.067H22.95v3.985h6.067v3.067h-7.079c-1.27.03-2.327-.884-2.359-2.042V17.29c-.03-1.156.975-2.117 2.244-2.146h7.194l-.002 3.062zm11.799 11.96c-1.503 3.19-4.195 2.555-5.4 0l-4.387-15.021h3.708l3.382 11.797 3.366-11.797h3.709l-4.378 15.021z" fill="#27AE60"/></svg>