<svg width="45" height="47" fill="none" xmlns="http://www.w3.org/2000/svg"><path d="M44.146 15.012L23.58.852c-.702-.446-1.451-.45-2.16 0L.854 15.012C.326 15.375 0 16.024 0 16.672v14.16c0 .648.326 1.297.854 1.66L21.42 46.654c.702.446 1.451.45 2.16 0l20.566-14.162c.527-.363.854-1.012.854-1.66v-14.16c0-.648-.327-1.297-.854-1.66zM24.433 6.246l15.143 10.426-6.755 4.668-8.387-5.783v-9.31zm-3.867 0v9.31L12.18 21.34l-6.755-4.668L20.566 6.246zM3.867 20.406l4.847 3.346-4.847 3.346v-6.691zm16.7 20.852L5.423 30.832l6.755-4.668 8.387 5.783v9.31zM22.5 28.472l-6.83-4.72 6.83-4.72 6.83 4.72-6.83 4.72zm1.933 12.786v-9.31l8.388-5.784 6.755 4.668-15.143 10.426zm16.7-14.16l-4.847-3.346 4.847-3.345v6.69z" fill="#27AE60"/></svg>