<svg width="57" height="47" fill="none" xmlns="http://www.w3.org/2000/svg"><path d="M55.775 22.3l-5.204-8.402c.11-.207.195-.44.195-.7 0-.778-.696-1.427-1.531-1.453l-5.761-9.284c.055-.156.11-.311.11-.467 0-.83-.723-1.478-1.586-1.478-.5 0-.918.207-1.224.544H29.697A1.517 1.517 0 0028.5.516c-.501 0-.919.207-1.197.545H16.282a1.618 1.618 0 00-1.225-.545c-.863 0-1.586.648-1.586 1.478 0 .156.055.337.111.467l-5.817 9.414c-.556.234-.946.726-.946 1.323 0 .052.028.104.028.155l-5.539 8.922C.557 22.405 0 23 0 23.727c0 .7.529 1.297 1.252 1.453l5.734 9.232a1.272 1.272 0 00-.084.467c0 .7.53 1.297 1.253 1.426l5.371 8.688a1.576 1.576 0 00-.11.519c0 .83.723 1.478 1.586 1.478.5 0 .918-.207 1.196-.519h11.105c.278.312.724.52 1.197.52.473 0 .918-.208 1.197-.52H40.83c.278.286.695.467 1.14.467.891 0 1.587-.674 1.587-1.478a1.01 1.01 0 00-.083-.415l5.371-8.74c.724-.13 1.253-.726 1.253-1.426 0-.156-.028-.311-.084-.467l5.706-9.233c.723-.13 1.28-.726 1.28-1.452 0-.7-.53-1.297-1.225-1.426zM14.528 42.608l-4.536-7.34h4.536v7.34zm0-8.117H9.992a1.499 1.499 0 00-.14-.311l4.676-4.59v4.9zm0-6.043l-5.232 5.161c-.14-.052-.278-.13-.418-.155L3.09 24.116c.055-.13.055-.26.055-.389 0-.13 0-.233-.028-.337l5.4-8.714a1.84 1.84 0 00.807-.26l5.204 5.032v9zm0-9.907L9.77 13.95c.14-.208.223-.467.223-.752 0-.026-.028-.078-.028-.104l4.564-1.53v6.976zm0-7.806l-4.536 1.53 4.536-7.313v5.783zm33.927 3.787l.084.13-3.674 16.182-6.624-6.51 10.187-9.829.027.027zM28.89 33.349l1.196 1.14h-2.365l1.169-1.14zm-.028-1.09l-8.656-8.273 8.266-8.169 8.628 8.48-8.238 7.962zm.556.571l8.239-7.962 7.013 6.899-.612 2.723H31.172l-1.754-1.66zM41.22 3.265c.111.052.223.104.362.13l6.012 9.751v.052c0 .285.083.544.222.752l-10.13 9.803-8.628-8.48L41.219 3.265zm-.946-.207l-11.8 11.644-5.93-5.835 17.284-5.81h.446zm-12.83 0c.278.259.64.414 1.057.414.418 0 .78-.155 1.058-.414h7.792L21.932 8.244l-5.288-5.186h10.798zm-12.08.544l.112-.207a4.4 4.4 0 00.278-.078L21.07 8.53l-5.706 1.919V3.602zm0 7.677l6.318-2.127 6.207 6.12-8.266 8.144-4.259-4.072V11.28zm0 8.973l3.785 3.657-3.785 3.708v-7.365zm0 8.506l4.37-4.305 8.6 8.325-1.781 1.712h-11.19v-5.732zm.724 15.69a1.523 1.523 0 00-.612-.337l-.112-.155v-8.688h10.382l-9.519 9.18h-.139zm13.498 0a1.73 1.73 0 00-1.085-.414c-.418 0-.807.181-1.086.415h-10.02l9.52-9.181h3.98l9.518 9.18H29.585zm12.47-1.14l-.446.726a1.46 1.46 0 00-.362.13l-9.268-8.896h11.884l-1.809 8.04zm1.335-2.153l1.336-5.887h2.282l-3.618 5.887zm3.618-6.665h-2.115l.473-2.049 1.781 1.764a.93.93 0 00-.139.285zm6.875-10.4l-5.762 9.363a2.884 2.884 0 00-.417.18l-2.143-2.126 3.59-15.871 4.76 7.676c-.028.13-.084.26-.084.415 0 .13.028.233.056.363z" fill="#27AE60"/></svg>